<mxfile host="app.diagrams.net" agent="Mozilla/5.0 (Macintosh; Intel Mac OS X 10_15_7) AppleWebKit/537.36 (KHTML, like Gecko) Chrome/128.0.0.0 Safari/537.36" version="24.7.14" pages="5">
  <diagram name="券核销" id="Oejz7C1kqy-tkjZJlRAs">
    <mxGraphModel dx="1194" dy="606" grid="1" gridSize="10" guides="1" tooltips="1" connect="1" arrows="1" fold="1" page="1" pageScale="1" pageWidth="827" pageHeight="1169" math="0" shadow="0">
      <root>
        <mxCell id="0" />
        <mxCell id="1" parent="0" />
        <mxCell id="R7UMJX-NIyTD17E3xuLt-2" value="设备管理通道" style="text;html=1;align=center;verticalAlign=middle;resizable=0;points=[];autosize=1;strokeColor=none;fillColor=none;" vertex="1" parent="1">
          <mxGeometry x="370" y="752" width="100" height="30" as="geometry" />
        </mxCell>
        <mxCell id="R7UMJX-NIyTD17E3xuLt-3" value="银联" style="rounded=0;whiteSpace=wrap;html=1;" vertex="1" parent="1">
          <mxGeometry x="480" y="750" width="120" height="32" as="geometry" />
        </mxCell>
        <mxCell id="R7UMJX-NIyTD17E3xuLt-4" value="券核销通道" style="text;html=1;align=center;verticalAlign=middle;resizable=0;points=[];autosize=1;strokeColor=none;fillColor=none;" vertex="1" parent="1">
          <mxGeometry x="378" y="803" width="80" height="30" as="geometry" />
        </mxCell>
        <mxCell id="R7UMJX-NIyTD17E3xuLt-5" value="" style="shape=mxgraph.cisco.misc.cisco_works;html=1;pointerEvents=1;dashed=0;fillColor=#036897;strokeColor=#ffffff;strokeWidth=2;verticalLabelPosition=bottom;verticalAlign=top;align=center;outlineConnect=0;" vertex="1" parent="1">
          <mxGeometry x="490" y="1612" width="85" height="67" as="geometry" />
        </mxCell>
        <mxCell id="R7UMJX-NIyTD17E3xuLt-6" value="抖音" style="text;html=1;align=center;verticalAlign=middle;whiteSpace=wrap;rounded=0;fillColor=#d5e8d4;strokeColor=#82b366;flipH=1;" vertex="1" parent="1">
          <mxGeometry x="280" y="1243" width="60" height="30" as="geometry" />
        </mxCell>
        <mxCell id="R7UMJX-NIyTD17E3xuLt-7" value="大众" style="text;html=1;align=center;verticalAlign=middle;whiteSpace=wrap;rounded=0;fillColor=#d5e8d4;strokeColor=#82b366;flipH=1;" vertex="1" parent="1">
          <mxGeometry x="388" y="1243" width="60" height="30" as="geometry" />
        </mxCell>
        <mxCell id="R7UMJX-NIyTD17E3xuLt-8" value="美团" style="text;html=1;align=center;verticalAlign=middle;whiteSpace=wrap;rounded=0;fillColor=#d5e8d4;strokeColor=#82b366;flipH=1;" vertex="1" parent="1">
          <mxGeometry x="495" y="1243" width="60" height="30" as="geometry" />
        </mxCell>
        <mxCell id="R7UMJX-NIyTD17E3xuLt-9" value="金陵" style="text;html=1;align=center;verticalAlign=middle;whiteSpace=wrap;rounded=0;fillColor=#f8cecc;strokeColor=#b85450;flipH=1;" vertex="1" parent="1">
          <mxGeometry x="603" y="1243" width="60" height="30" as="geometry" />
        </mxCell>
        <mxCell id="R7UMJX-NIyTD17E3xuLt-10" value="XTMP" style="text;html=1;align=center;verticalAlign=middle;whiteSpace=wrap;rounded=0;fillColor=#f8cecc;strokeColor=#b85450;flipH=1;" vertex="1" parent="1">
          <mxGeometry x="710" y="1243" width="60" height="30" as="geometry" />
        </mxCell>
        <mxCell id="R7UMJX-NIyTD17E3xuLt-11" value="gateway" style="rounded=0;whiteSpace=wrap;html=1;fillColor=#dae8fc;strokeColor=#6c8ebf;" vertex="1" parent="1">
          <mxGeometry x="280" y="1513" width="510" height="30" as="geometry" />
        </mxCell>
        <mxCell id="R7UMJX-NIyTD17E3xuLt-12" style="edgeStyle=orthogonalEdgeStyle;rounded=0;orthogonalLoop=1;jettySize=auto;html=1;entryX=0.482;entryY=1.1;entryDx=0;entryDy=0;entryPerimeter=0;" edge="1" parent="1" source="R7UMJX-NIyTD17E3xuLt-5" target="R7UMJX-NIyTD17E3xuLt-11">
          <mxGeometry relative="1" as="geometry" />
        </mxCell>
        <mxCell id="R7UMJX-NIyTD17E3xuLt-13" value="&lt;p style=&quot;margin-top: 0px;&quot;&gt;{&lt;br&gt;&lt;b&gt;&amp;nbsp; &amp;nbsp;“”channel”:&quot;douyin&quot;&lt;br&gt;&lt;/b&gt;}&lt;/p&gt;" style="text;html=1;whiteSpace=wrap;overflow=hidden;rounded=0;" vertex="1" parent="1">
          <mxGeometry x="603" y="1601" width="180" height="50" as="geometry" />
        </mxCell>
        <mxCell id="R7UMJX-NIyTD17E3xuLt-14" value="http header:&lt;span style=&quot;color: rgb(163, 21, 21); background-color: rgb(255, 255, 254); font-family: Consolas, &amp;quot;Courier New&amp;quot;, monospace; white-space-collapse: preserve;&quot;&gt;x-&lt;/span&gt;&lt;span style=&quot;color: rgb(163, 21, 21); background-color: rgb(255, 255, 254); font-family: Consolas, &amp;quot;Courier New&amp;quot;, monospace; white-space-collapse: preserve;&quot;&gt;partner&lt;/span&gt;&lt;span style=&quot;background-color: initial;&quot;&gt;-code&amp;nbsp; =XXXX&lt;/span&gt;" style="text;html=1;align=center;verticalAlign=middle;resizable=0;points=[];autosize=1;strokeColor=none;fillColor=none;" vertex="1" parent="1">
          <mxGeometry x="590" y="1571" width="220" height="30" as="geometry" />
        </mxCell>
        <mxCell id="R7UMJX-NIyTD17E3xuLt-15" value="1 根据&amp;nbsp;&lt;span style=&quot;color: rgb(163, 21, 21); background-color: rgb(255, 255, 254); font-family: Consolas, &amp;quot;Courier New&amp;quot;, monospace; white-space-collapse: preserve;&quot;&gt;partnerCode  获取接口配置&lt;/span&gt;&lt;div&gt;&lt;span style=&quot;color: rgb(163, 21, 21); background-color: rgb(255, 255, 254); font-family: Consolas, &amp;quot;Courier New&amp;quot;, monospace; white-space-collapse: preserve;&quot;&gt;     2. 根据channel 来获取对应的 供应商Id&lt;/span&gt;&lt;/div&gt;&lt;div&gt;&lt;span style=&quot;color: rgb(163, 21, 21); background-color: rgb(255, 255, 254); font-family: Consolas, &amp;quot;Courier New&amp;quot;, monospace; white-space-collapse: preserve;&quot;&gt;&lt;br&gt;&lt;/span&gt;&lt;/div&gt;" style="text;html=1;align=center;verticalAlign=middle;resizable=0;points=[];autosize=1;strokeColor=none;fillColor=none;" vertex="1" parent="1">
          <mxGeometry x="50" y="1131" width="280" height="60" as="geometry" />
        </mxCell>
        <mxCell id="R7UMJX-NIyTD17E3xuLt-16" value="银联" style="rounded=0;whiteSpace=wrap;html=1;fillColor=#d5e8d4;strokeColor=#82b366;" vertex="1" parent="1">
          <mxGeometry x="480" y="801" width="120" height="32" as="geometry" />
        </mxCell>
        <mxCell id="R7UMJX-NIyTD17E3xuLt-17" value="抖音" style="rounded=0;whiteSpace=wrap;html=1;" vertex="1" parent="1">
          <mxGeometry x="633" y="801" width="120" height="32" as="geometry" />
        </mxCell>
        <mxCell id="R7UMJX-NIyTD17E3xuLt-18" value="直连券通道" style="rounded=0;whiteSpace=wrap;html=1;fillColor=#f8cecc;strokeColor=#b85450;" vertex="1" parent="1">
          <mxGeometry x="480" y="853" width="120" height="32" as="geometry" />
        </mxCell>
        <mxCell id="R7UMJX-NIyTD17E3xuLt-19" value="金陵" style="rounded=0;whiteSpace=wrap;html=1;fillColor=#fff2cc;strokeColor=#d6b656;" vertex="1" parent="1">
          <mxGeometry x="633" y="853" width="120" height="32" as="geometry" />
        </mxCell>
        <mxCell id="R7UMJX-NIyTD17E3xuLt-20" value="" style="strokeWidth=2;html=1;shape=mxgraph.flowchart.annotation_2;align=left;labelPosition=right;pointerEvents=1;direction=south;" vertex="1" parent="1">
          <mxGeometry x="603" y="1203" width="153.5" height="17" as="geometry" />
        </mxCell>
        <mxCell id="R7UMJX-NIyTD17E3xuLt-21" value="直连通道" style="text;html=1;align=center;verticalAlign=middle;resizable=0;points=[];autosize=1;strokeColor=none;fillColor=none;" vertex="1" parent="1">
          <mxGeometry x="644.75" y="1161" width="70" height="30" as="geometry" />
        </mxCell>
        <mxCell id="R7UMJX-NIyTD17E3xuLt-22" style="edgeStyle=orthogonalEdgeStyle;rounded=0;orthogonalLoop=1;jettySize=auto;html=1;entryX=0.25;entryY=1;entryDx=0;entryDy=0;" edge="1" parent="1" source="R7UMJX-NIyTD17E3xuLt-26" target="R7UMJX-NIyTD17E3xuLt-9">
          <mxGeometry relative="1" as="geometry">
            <Array as="points">
              <mxPoint x="530" y="1343" />
              <mxPoint x="618" y="1343" />
            </Array>
          </mxGeometry>
        </mxCell>
        <mxCell id="R7UMJX-NIyTD17E3xuLt-23" value="if&amp;nbsp; channel== 金陵" style="edgeLabel;html=1;align=center;verticalAlign=middle;resizable=0;points=[];" vertex="1" connectable="0" parent="R7UMJX-NIyTD17E3xuLt-22">
          <mxGeometry x="0.0225" y="3" relative="1" as="geometry">
            <mxPoint as="offset" />
          </mxGeometry>
        </mxCell>
        <mxCell id="R7UMJX-NIyTD17E3xuLt-24" style="edgeStyle=orthogonalEdgeStyle;rounded=0;orthogonalLoop=1;jettySize=auto;html=1;entryX=0.5;entryY=1;entryDx=0;entryDy=0;" edge="1" parent="1" source="R7UMJX-NIyTD17E3xuLt-26" target="R7UMJX-NIyTD17E3xuLt-6">
          <mxGeometry relative="1" as="geometry" />
        </mxCell>
        <mxCell id="R7UMJX-NIyTD17E3xuLt-25" value="if channel==douyin" style="edgeLabel;html=1;align=center;verticalAlign=middle;resizable=0;points=[];" vertex="1" connectable="0" parent="R7UMJX-NIyTD17E3xuLt-24">
          <mxGeometry x="0.0581" y="1" relative="1" as="geometry">
            <mxPoint as="offset" />
          </mxGeometry>
        </mxCell>
        <mxCell id="R7UMJX-NIyTD17E3xuLt-26" value="" style="verticalLabelPosition=bottom;verticalAlign=top;html=1;shape=mxgraph.flowchart.or;" vertex="1" parent="1">
          <mxGeometry x="495" y="1363" width="70" height="70" as="geometry" />
        </mxCell>
        <mxCell id="R7UMJX-NIyTD17E3xuLt-27" style="edgeStyle=orthogonalEdgeStyle;rounded=0;orthogonalLoop=1;jettySize=auto;html=1;entryX=0.5;entryY=1;entryDx=0;entryDy=0;entryPerimeter=0;" edge="1" parent="1" source="R7UMJX-NIyTD17E3xuLt-11" target="R7UMJX-NIyTD17E3xuLt-26">
          <mxGeometry relative="1" as="geometry" />
        </mxCell>
        <mxCell id="R7UMJX-NIyTD17E3xuLt-28" value="根据 channel&amp;nbsp; 路由" style="text;html=1;align=center;verticalAlign=middle;resizable=0;points=[];autosize=1;strokeColor=none;fillColor=none;" vertex="1" parent="1">
          <mxGeometry x="555" y="1423" width="120" height="30" as="geometry" />
        </mxCell>
        <mxCell id="R7UMJX-NIyTD17E3xuLt-29" style="edgeStyle=orthogonalEdgeStyle;rounded=0;orthogonalLoop=1;jettySize=auto;html=1;entryX=0.35;entryY=1;entryDx=0;entryDy=0;entryPerimeter=0;" edge="1" parent="1" source="R7UMJX-NIyTD17E3xuLt-26" target="R7UMJX-NIyTD17E3xuLt-10">
          <mxGeometry relative="1" as="geometry">
            <Array as="points">
              <mxPoint x="749" y="1393" />
            </Array>
          </mxGeometry>
        </mxCell>
        <mxCell id="R7UMJX-NIyTD17E3xuLt-30" value="if&amp;nbsp; channl==XTMP" style="edgeLabel;html=1;align=center;verticalAlign=middle;resizable=0;points=[];" vertex="1" connectable="0" parent="R7UMJX-NIyTD17E3xuLt-29">
          <mxGeometry x="-0.5461" y="3" relative="1" as="geometry">
            <mxPoint as="offset" />
          </mxGeometry>
        </mxCell>
        <mxCell id="R7UMJX-NIyTD17E3xuLt-31" value="XTMP" style="rounded=0;whiteSpace=wrap;html=1;fillColor=#fff2cc;strokeColor=#d6b656;" vertex="1" parent="1">
          <mxGeometry x="792" y="853" width="118" height="32" as="geometry" />
        </mxCell>
        <mxCell id="R7UMJX-NIyTD17E3xuLt-32" value="抖音" style="rounded=0;whiteSpace=wrap;html=1;" vertex="1" parent="1">
          <mxGeometry x="792" y="801" width="120" height="32" as="geometry" />
        </mxCell>
        <mxCell id="R7UMJX-NIyTD17E3xuLt-33" value="抖音" style="rounded=0;whiteSpace=wrap;html=1;" vertex="1" parent="1">
          <mxGeometry x="950" y="801" width="120" height="32" as="geometry" />
        </mxCell>
        <mxCell id="R7UMJX-NIyTD17E3xuLt-34" value="直连券通道" style="rounded=0;whiteSpace=wrap;html=1;fillColor=#f8cecc;strokeColor=#b85450;" vertex="1" parent="1">
          <mxGeometry x="912" y="1123" width="120" height="32" as="geometry" />
        </mxCell>
        <mxCell id="R7UMJX-NIyTD17E3xuLt-35" value="定义" style="text;html=1;align=center;verticalAlign=middle;resizable=0;points=[];autosize=1;strokeColor=none;fillColor=none;" vertex="1" parent="1">
          <mxGeometry x="955" y="1081" width="50" height="30" as="geometry" />
        </mxCell>
        <mxCell id="R7UMJX-NIyTD17E3xuLt-36" value="支持的通道" style="text;html=1;align=center;verticalAlign=middle;resizable=0;points=[];autosize=1;strokeColor=none;fillColor=none;" vertex="1" parent="1">
          <mxGeometry x="970" y="1173" width="80" height="30" as="geometry" />
        </mxCell>
        <mxCell id="R7UMJX-NIyTD17E3xuLt-37" value="金陵，XTMP，抖音" style="text;html=1;align=center;verticalAlign=middle;resizable=0;points=[];autosize=1;strokeColor=none;fillColor=none;" vertex="1" parent="1">
          <mxGeometry x="1050" y="1173" width="130" height="30" as="geometry" />
        </mxCell>
        <mxCell id="R7UMJX-NIyTD17E3xuLt-38" value="金陵 参数" style="text;html=1;align=center;verticalAlign=middle;resizable=0;points=[];autosize=1;strokeColor=#2D7600;fillColor=#60a917;fontColor=#ffffff;" vertex="1" parent="1">
          <mxGeometry x="980" y="1213" width="70" height="30" as="geometry" />
        </mxCell>
        <mxCell id="R7UMJX-NIyTD17E3xuLt-39" value="appkey&amp;nbsp; appsecret&amp;nbsp; url" style="text;html=1;align=center;verticalAlign=middle;resizable=0;points=[];autosize=1;strokeColor=none;fillColor=none;" vertex="1" parent="1">
          <mxGeometry x="1010" y="1253" width="140" height="30" as="geometry" />
        </mxCell>
        <mxCell id="R7UMJX-NIyTD17E3xuLt-40" value="XTMP 参数" style="text;html=1;align=center;verticalAlign=middle;resizable=0;points=[];autosize=1;strokeColor=#2D7600;fillColor=#60a917;fontColor=#ffffff;" vertex="1" parent="1">
          <mxGeometry x="980" y="1283" width="80" height="30" as="geometry" />
        </mxCell>
        <mxCell id="R7UMJX-NIyTD17E3xuLt-41" value="appkey&amp;nbsp; appsecret&amp;nbsp; url" style="text;html=1;align=center;verticalAlign=middle;resizable=0;points=[];autosize=1;strokeColor=none;fillColor=none;" vertex="1" parent="1">
          <mxGeometry x="1010" y="1323" width="140" height="30" as="geometry" />
        </mxCell>
        <mxCell id="R7UMJX-NIyTD17E3xuLt-42" value="抖音 参数" style="text;html=1;align=center;verticalAlign=middle;resizable=0;points=[];autosize=1;strokeColor=#2D7600;fillColor=#60a917;fontColor=#ffffff;" vertex="1" parent="1">
          <mxGeometry x="980" y="1363" width="70" height="30" as="geometry" />
        </mxCell>
        <mxCell id="R7UMJX-NIyTD17E3xuLt-43" value="clientId&amp;nbsp; clientsecret&amp;nbsp; accountId" style="text;html=1;align=center;verticalAlign=middle;resizable=0;points=[];autosize=1;strokeColor=none;fillColor=none;" vertex="1" parent="1">
          <mxGeometry x="1010" y="1413" width="190" height="30" as="geometry" />
        </mxCell>
      </root>
    </mxGraphModel>
  </diagram>
  <diagram id="nNwVOChAV_07uXNDpx9K" name="缓存处理逻辑">
    <mxGraphModel dx="865" dy="487" grid="1" gridSize="10" guides="1" tooltips="1" connect="1" arrows="1" fold="1" page="1" pageScale="1" pageWidth="827" pageHeight="1169" math="0" shadow="0">
      <root>
        <mxCell id="0" />
        <mxCell id="1" parent="0" />
        <mxCell id="QwFTXrsgH0nymIHTwQQ4-1" value="1. 单条记录" style="text;html=1;align=center;verticalAlign=middle;resizable=0;points=[];autosize=1;strokeColor=none;fillColor=none;" vertex="1" parent="1">
          <mxGeometry x="30" y="28" width="80" height="30" as="geometry" />
        </mxCell>
        <mxCell id="QwFTXrsgH0nymIHTwQQ4-2" value="倒排索引" style="text;html=1;align=center;verticalAlign=middle;resizable=0;points=[];autosize=1;strokeColor=none;fillColor=none;" vertex="1" parent="1">
          <mxGeometry x="270" y="28" width="70" height="30" as="geometry" />
        </mxCell>
      </root>
    </mxGraphModel>
  </diagram>
  <diagram id="HBBtcZVMcpcwWy_b1Bbt" name="bridge架构">
    <mxGraphModel dx="1434" dy="746" grid="1" gridSize="10" guides="1" tooltips="1" connect="1" arrows="1" fold="1" page="1" pageScale="1" pageWidth="827" pageHeight="1169" math="0" shadow="0">
      <root>
        <mxCell id="0" />
        <mxCell id="1" parent="0" />
        <mxCell id="QbEJYBsJBKrGej4ThLcX-1" value="美团" style="rounded=0;whiteSpace=wrap;html=1;fillColor=#dae8fc;strokeColor=#6c8ebf;" vertex="1" parent="1">
          <mxGeometry x="140" y="160" width="100" height="40" as="geometry" />
        </mxCell>
        <mxCell id="QbEJYBsJBKrGej4ThLcX-2" value="游客" style="shape=umlActor;verticalLabelPosition=bottom;verticalAlign=top;html=1;outlineConnect=0;fillColor=#f5f5f5;fontColor=#333333;strokeColor=#666666;" vertex="1" parent="1">
          <mxGeometry x="160" y="20" width="30" height="60" as="geometry" />
        </mxCell>
        <mxCell id="QbEJYBsJBKrGej4ThLcX-3" value="携程" style="rounded=0;whiteSpace=wrap;html=1;fillColor=#dae8fc;strokeColor=#6c8ebf;" vertex="1" parent="1">
          <mxGeometry x="268" y="160" width="100" height="40" as="geometry" />
        </mxCell>
        <mxCell id="QbEJYBsJBKrGej4ThLcX-4" style="edgeStyle=orthogonalEdgeStyle;rounded=0;orthogonalLoop=1;jettySize=auto;html=1;" edge="1" parent="1" source="QbEJYBsJBKrGej4ThLcX-5" target="QbEJYBsJBKrGej4ThLcX-16">
          <mxGeometry relative="1" as="geometry">
            <Array as="points">
              <mxPoint x="440" y="230" />
              <mxPoint x="440" y="230" />
            </Array>
          </mxGeometry>
        </mxCell>
        <mxCell id="QbEJYBsJBKrGej4ThLcX-5" value="抖音" style="rounded=0;whiteSpace=wrap;html=1;fillColor=#dae8fc;strokeColor=#6c8ebf;" vertex="1" parent="1">
          <mxGeometry x="395" y="160" width="100" height="40" as="geometry" />
        </mxCell>
        <mxCell id="QbEJYBsJBKrGej4ThLcX-6" value="飞猪" style="rounded=0;whiteSpace=wrap;html=1;fillColor=#dae8fc;strokeColor=#6c8ebf;" vertex="1" parent="1">
          <mxGeometry x="523" y="160" width="100" height="40" as="geometry" />
        </mxCell>
        <mxCell id="QbEJYBsJBKrGej4ThLcX-7" value="旅行社" style="rounded=0;whiteSpace=wrap;html=1;fillColor=#dae8fc;strokeColor=#6c8ebf;" vertex="1" parent="1">
          <mxGeometry x="650" y="160" width="100" height="40" as="geometry" />
        </mxCell>
        <mxCell id="QbEJYBsJBKrGej4ThLcX-8" value="用户" style="text;html=1;align=center;verticalAlign=middle;resizable=0;points=[];autosize=1;strokeColor=#666666;fillColor=#f5f5f5;fontColor=#333333;" vertex="1" parent="1">
          <mxGeometry x="15" y="48" width="50" height="30" as="geometry" />
        </mxCell>
        <mxCell id="QbEJYBsJBKrGej4ThLcX-9" value="渠道" style="text;html=1;align=center;verticalAlign=middle;resizable=0;points=[];autosize=1;strokeColor=#6c8ebf;fillColor=#dae8fc;" vertex="1" parent="1">
          <mxGeometry x="15" y="160" width="50" height="30" as="geometry" />
        </mxCell>
        <mxCell id="QbEJYBsJBKrGej4ThLcX-10" value="平台" style="text;html=1;align=center;verticalAlign=middle;resizable=0;points=[];autosize=1;strokeColor=#82b366;fillColor=#d5e8d4;" vertex="1" parent="1">
          <mxGeometry x="15" y="300" width="50" height="30" as="geometry" />
        </mxCell>
        <mxCell id="QbEJYBsJBKrGej4ThLcX-11" value="业务系统" style="text;html=1;align=center;verticalAlign=middle;resizable=0;points=[];autosize=1;strokeColor=#9673a6;fillColor=#e1d5e7;" vertex="1" parent="1">
          <mxGeometry x="5" y="500" width="70" height="30" as="geometry" />
        </mxCell>
        <mxCell id="QbEJYBsJBKrGej4ThLcX-12" style="edgeStyle=orthogonalEdgeStyle;rounded=0;orthogonalLoop=1;jettySize=auto;html=1;entryX=0.75;entryY=1;entryDx=0;entryDy=0;dashed=1;" edge="1" parent="1">
          <mxGeometry relative="1" as="geometry">
            <mxPoint x="601" y="300" as="sourcePoint" />
            <mxPoint x="601" y="200" as="targetPoint" />
            <Array as="points">
              <mxPoint x="601" y="280" />
              <mxPoint x="601" y="280" />
            </Array>
          </mxGeometry>
        </mxCell>
        <mxCell id="QbEJYBsJBKrGej4ThLcX-13" style="edgeStyle=orthogonalEdgeStyle;rounded=0;orthogonalLoop=1;jettySize=auto;html=1;entryX=0.5;entryY=0;entryDx=0;entryDy=0;" edge="1" parent="1" source="QbEJYBsJBKrGej4ThLcX-16" target="QbEJYBsJBKrGej4ThLcX-17">
          <mxGeometry relative="1" as="geometry" />
        </mxCell>
        <mxCell id="QbEJYBsJBKrGej4ThLcX-14" style="edgeStyle=orthogonalEdgeStyle;rounded=0;orthogonalLoop=1;jettySize=auto;html=1;entryX=0.5;entryY=0;entryDx=0;entryDy=0;" edge="1" parent="1" source="QbEJYBsJBKrGej4ThLcX-16" target="QbEJYBsJBKrGej4ThLcX-20">
          <mxGeometry relative="1" as="geometry" />
        </mxCell>
        <mxCell id="QbEJYBsJBKrGej4ThLcX-15" style="edgeStyle=orthogonalEdgeStyle;rounded=0;orthogonalLoop=1;jettySize=auto;html=1;entryX=0.576;entryY=-0.05;entryDx=0;entryDy=0;entryPerimeter=0;" edge="1" parent="1" source="QbEJYBsJBKrGej4ThLcX-16" target="QbEJYBsJBKrGej4ThLcX-19">
          <mxGeometry relative="1" as="geometry">
            <mxPoint x="440" y="480" as="targetPoint" />
          </mxGeometry>
        </mxCell>
        <mxCell id="QbEJYBsJBKrGej4ThLcX-16" value="票务渠道对接平台" style="rounded=0;whiteSpace=wrap;html=1;fillColor=#d5e8d4;strokeColor=#82b366;" vertex="1" parent="1">
          <mxGeometry x="120" y="300" width="640" height="40" as="geometry" />
        </mxCell>
        <mxCell id="QbEJYBsJBKrGej4ThLcX-17" value="文旅平台" style="rounded=0;whiteSpace=wrap;html=1;flipH=1;fillColor=#e1d5e7;strokeColor=#9673a6;" vertex="1" parent="1">
          <mxGeometry x="120" y="490" width="92" height="40" as="geometry" />
        </mxCell>
        <mxCell id="QbEJYBsJBKrGej4ThLcX-18" style="edgeStyle=orthogonalEdgeStyle;rounded=0;orthogonalLoop=1;jettySize=auto;html=1;entryX=0.5;entryY=1;entryDx=0;entryDy=0;" edge="1" parent="1" source="QbEJYBsJBKrGej4ThLcX-19" target="QbEJYBsJBKrGej4ThLcX-16">
          <mxGeometry relative="1" as="geometry">
            <Array as="points">
              <mxPoint x="440" y="450" />
              <mxPoint x="440" y="450" />
            </Array>
          </mxGeometry>
        </mxCell>
        <mxCell id="QbEJYBsJBKrGej4ThLcX-19" value="其他业务中台" style="rounded=0;whiteSpace=wrap;html=1;flipH=1;fillColor=#e1d5e7;strokeColor=#9673a6;" vertex="1" parent="1">
          <mxGeometry x="400" y="490" width="92" height="40" as="geometry" />
        </mxCell>
        <mxCell id="QbEJYBsJBKrGej4ThLcX-20" value="票务系统" style="rounded=0;whiteSpace=wrap;html=1;flipH=1;fillColor=#e1d5e7;strokeColor=#9673a6;" vertex="1" parent="1">
          <mxGeometry x="680" y="490" width="92" height="40" as="geometry" />
        </mxCell>
        <mxCell id="QbEJYBsJBKrGej4ThLcX-21" style="edgeStyle=orthogonalEdgeStyle;rounded=0;orthogonalLoop=1;jettySize=auto;html=1;entryX=0.109;entryY=-0.025;entryDx=0;entryDy=0;entryPerimeter=0;" edge="1" parent="1" source="QbEJYBsJBKrGej4ThLcX-1" target="QbEJYBsJBKrGej4ThLcX-16">
          <mxGeometry relative="1" as="geometry" />
        </mxCell>
        <mxCell id="QbEJYBsJBKrGej4ThLcX-22" style="edgeStyle=orthogonalEdgeStyle;rounded=0;orthogonalLoop=1;jettySize=auto;html=1;entryX=0.708;entryY=0;entryDx=0;entryDy=0;entryPerimeter=0;" edge="1" parent="1" source="QbEJYBsJBKrGej4ThLcX-6" target="QbEJYBsJBKrGej4ThLcX-16">
          <mxGeometry relative="1" as="geometry" />
        </mxCell>
        <mxCell id="QbEJYBsJBKrGej4ThLcX-23" style="edgeStyle=orthogonalEdgeStyle;rounded=0;orthogonalLoop=1;jettySize=auto;html=1;entryX=0.905;entryY=-0.1;entryDx=0;entryDy=0;entryPerimeter=0;" edge="1" parent="1" source="QbEJYBsJBKrGej4ThLcX-7" target="QbEJYBsJBKrGej4ThLcX-16">
          <mxGeometry relative="1" as="geometry" />
        </mxCell>
        <mxCell id="QbEJYBsJBKrGej4ThLcX-24" style="edgeStyle=orthogonalEdgeStyle;rounded=0;orthogonalLoop=1;jettySize=auto;html=1;entryX=0.75;entryY=1;entryDx=0;entryDy=0;dashed=1;" edge="1" parent="1">
          <mxGeometry relative="1" as="geometry">
            <mxPoint x="211" y="300" as="sourcePoint" />
            <mxPoint x="211" y="200" as="targetPoint" />
            <Array as="points">
              <mxPoint x="211" y="280" />
              <mxPoint x="211" y="280" />
            </Array>
          </mxGeometry>
        </mxCell>
        <mxCell id="QbEJYBsJBKrGej4ThLcX-25" style="edgeStyle=orthogonalEdgeStyle;rounded=0;orthogonalLoop=1;jettySize=auto;html=1;entryX=0.75;entryY=1;entryDx=0;entryDy=0;dashed=1;" edge="1" parent="1">
          <mxGeometry relative="1" as="geometry">
            <mxPoint x="341" y="300" as="sourcePoint" />
            <mxPoint x="341" y="200" as="targetPoint" />
            <Array as="points">
              <mxPoint x="341" y="280" />
              <mxPoint x="341" y="280" />
            </Array>
          </mxGeometry>
        </mxCell>
        <mxCell id="QbEJYBsJBKrGej4ThLcX-26" style="edgeStyle=orthogonalEdgeStyle;rounded=0;orthogonalLoop=1;jettySize=auto;html=1;entryX=0.75;entryY=1;entryDx=0;entryDy=0;dashed=1;" edge="1" parent="1">
          <mxGeometry relative="1" as="geometry">
            <mxPoint x="471" y="300" as="sourcePoint" />
            <mxPoint x="471" y="200" as="targetPoint" />
            <Array as="points">
              <mxPoint x="471" y="280" />
              <mxPoint x="471" y="280" />
            </Array>
          </mxGeometry>
        </mxCell>
        <mxCell id="QbEJYBsJBKrGej4ThLcX-27" style="edgeStyle=orthogonalEdgeStyle;rounded=0;orthogonalLoop=1;jettySize=auto;html=1;entryX=0.75;entryY=1;entryDx=0;entryDy=0;dashed=1;" edge="1" parent="1">
          <mxGeometry relative="1" as="geometry">
            <mxPoint x="731" y="300" as="sourcePoint" />
            <mxPoint x="731" y="200" as="targetPoint" />
            <Array as="points">
              <mxPoint x="731" y="200" />
            </Array>
          </mxGeometry>
        </mxCell>
        <mxCell id="QbEJYBsJBKrGej4ThLcX-28" style="edgeStyle=orthogonalEdgeStyle;rounded=0;orthogonalLoop=1;jettySize=auto;html=1;entryX=0.309;entryY=0.075;entryDx=0;entryDy=0;entryPerimeter=0;" edge="1" parent="1" source="QbEJYBsJBKrGej4ThLcX-3" target="QbEJYBsJBKrGej4ThLcX-16">
          <mxGeometry relative="1" as="geometry" />
        </mxCell>
        <mxCell id="QbEJYBsJBKrGej4ThLcX-29" value="通知" style="text;html=1;align=center;verticalAlign=middle;resizable=0;points=[];autosize=1;dashed=1;fillColor=#f5f5f5;fontColor=#333333;strokeColor=#666666;" vertex="1" parent="1">
          <mxGeometry x="120" y="260" width="50" height="30" as="geometry" />
        </mxCell>
        <mxCell id="QbEJYBsJBKrGej4ThLcX-30" value="下单" style="text;html=1;align=center;verticalAlign=middle;resizable=0;points=[];autosize=1;strokeColor=#d79b00;fillColor=#ffe6cc;" vertex="1" parent="1">
          <mxGeometry x="120" y="210" width="50" height="30" as="geometry" />
        </mxCell>
        <mxCell id="QbEJYBsJBKrGej4ThLcX-31" value="" style="line;strokeWidth=4;direction=south;html=1;perimeter=backbonePerimeter;points=[];outlineConnect=0;" vertex="1" parent="1">
          <mxGeometry x="85" y="20" width="10" height="540" as="geometry" />
        </mxCell>
      </root>
    </mxGraphModel>
  </diagram>
  <diagram id="QyY5rRZUAvsD4AZevoY-" name="定时任务">
    <mxGraphModel dx="1434" dy="746" grid="1" gridSize="10" guides="1" tooltips="1" connect="1" arrows="1" fold="1" page="1" pageScale="1" pageWidth="827" pageHeight="1169" math="0" shadow="0">
      <root>
        <mxCell id="0" />
        <mxCell id="1" parent="0" />
        <mxCell id="8yrz2jLXbcKB5axZWUdh-8" style="edgeStyle=orthogonalEdgeStyle;rounded=0;orthogonalLoop=1;jettySize=auto;html=1;" edge="1" parent="1" source="8yrz2jLXbcKB5axZWUdh-1" target="8yrz2jLXbcKB5axZWUdh-5">
          <mxGeometry relative="1" as="geometry" />
        </mxCell>
        <mxCell id="8yrz2jLXbcKB5axZWUdh-1" value="xxl-job" style="rounded=0;whiteSpace=wrap;html=1;" vertex="1" parent="1">
          <mxGeometry x="60" y="80" width="110" height="30" as="geometry" />
        </mxCell>
        <mxCell id="8yrz2jLXbcKB5axZWUdh-3" value="trigger" style="text;html=1;align=center;verticalAlign=middle;resizable=0;points=[];autosize=1;strokeColor=none;fillColor=none;" vertex="1" parent="1">
          <mxGeometry x="120" y="130" width="60" height="30" as="geometry" />
        </mxCell>
        <mxCell id="8yrz2jLXbcKB5axZWUdh-7" style="edgeStyle=orthogonalEdgeStyle;rounded=0;orthogonalLoop=1;jettySize=auto;html=1;entryX=0.5;entryY=0;entryDx=0;entryDy=0;" edge="1" parent="1" source="8yrz2jLXbcKB5axZWUdh-5" target="8yrz2jLXbcKB5axZWUdh-6">
          <mxGeometry relative="1" as="geometry" />
        </mxCell>
        <mxCell id="8yrz2jLXbcKB5axZWUdh-5" value="获取 当前可以执行的任务" style="whiteSpace=wrap;html=1;" vertex="1" parent="1">
          <mxGeometry x="45" y="200" width="140" height="30" as="geometry" />
        </mxCell>
        <mxCell id="8yrz2jLXbcKB5axZWUdh-9" style="edgeStyle=orthogonalEdgeStyle;rounded=0;orthogonalLoop=1;jettySize=auto;html=1;entryX=1;entryY=0.5;entryDx=0;entryDy=0;" edge="1" parent="1" source="8yrz2jLXbcKB5axZWUdh-6" target="8yrz2jLXbcKB5axZWUdh-5">
          <mxGeometry relative="1" as="geometry">
            <Array as="points">
              <mxPoint x="205" y="310" />
              <mxPoint x="205" y="215" />
            </Array>
          </mxGeometry>
        </mxCell>
        <mxCell id="8yrz2jLXbcKB5axZWUdh-12" style="edgeStyle=orthogonalEdgeStyle;rounded=0;orthogonalLoop=1;jettySize=auto;html=1;entryX=0.5;entryY=0;entryDx=0;entryDy=0;" edge="1" parent="1" source="8yrz2jLXbcKB5axZWUdh-6" target="8yrz2jLXbcKB5axZWUdh-11">
          <mxGeometry relative="1" as="geometry" />
        </mxCell>
        <mxCell id="8yrz2jLXbcKB5axZWUdh-20" style="edgeStyle=orthogonalEdgeStyle;rounded=0;orthogonalLoop=1;jettySize=auto;html=1;entryX=0;entryY=0.25;entryDx=0;entryDy=0;" edge="1" parent="1" source="8yrz2jLXbcKB5axZWUdh-6" target="8yrz2jLXbcKB5axZWUdh-5">
          <mxGeometry relative="1" as="geometry">
            <Array as="points">
              <mxPoint x="25" y="310" />
              <mxPoint x="25" y="208" />
            </Array>
          </mxGeometry>
        </mxCell>
        <mxCell id="8yrz2jLXbcKB5axZWUdh-6" value="create execute job" style="rounded=0;whiteSpace=wrap;html=1;" vertex="1" parent="1">
          <mxGeometry x="60" y="290" width="110" height="30" as="geometry" />
        </mxCell>
        <mxCell id="8yrz2jLXbcKB5axZWUdh-10" value="timeout" style="text;html=1;align=center;verticalAlign=middle;resizable=0;points=[];autosize=1;strokeColor=none;fillColor=none;" vertex="1" parent="1">
          <mxGeometry x="210" y="248" width="60" height="30" as="geometry" />
        </mxCell>
        <mxCell id="8yrz2jLXbcKB5axZWUdh-18" style="edgeStyle=orthogonalEdgeStyle;rounded=0;orthogonalLoop=1;jettySize=auto;html=1;" edge="1" parent="1" source="8yrz2jLXbcKB5axZWUdh-11" target="8yrz2jLXbcKB5axZWUdh-6">
          <mxGeometry relative="1" as="geometry">
            <Array as="points">
              <mxPoint x="290" y="410" />
              <mxPoint x="290" y="310" />
            </Array>
          </mxGeometry>
        </mxCell>
        <mxCell id="8yrz2jLXbcKB5axZWUdh-11" value="拆分任务" style="rounded=0;whiteSpace=wrap;html=1;" vertex="1" parent="1">
          <mxGeometry x="60" y="390" width="110" height="30" as="geometry" />
        </mxCell>
        <mxCell id="8yrz2jLXbcKB5axZWUdh-13" value="任务1" style="rounded=0;whiteSpace=wrap;html=1;" vertex="1" parent="1">
          <mxGeometry x="5" y="470" width="60" height="30" as="geometry" />
        </mxCell>
        <mxCell id="8yrz2jLXbcKB5axZWUdh-16" style="edgeStyle=orthogonalEdgeStyle;rounded=0;orthogonalLoop=1;jettySize=auto;html=1;" edge="1" parent="1" source="8yrz2jLXbcKB5axZWUdh-14">
          <mxGeometry relative="1" as="geometry">
            <mxPoint x="115" y="430" as="targetPoint" />
          </mxGeometry>
        </mxCell>
        <mxCell id="8yrz2jLXbcKB5axZWUdh-14" value="任务2" style="rounded=0;whiteSpace=wrap;html=1;" vertex="1" parent="1">
          <mxGeometry x="85" y="470" width="60" height="30" as="geometry" />
        </mxCell>
        <mxCell id="8yrz2jLXbcKB5axZWUdh-15" value="任务2" style="rounded=0;whiteSpace=wrap;html=1;" vertex="1" parent="1">
          <mxGeometry x="165" y="470" width="60" height="30" as="geometry" />
        </mxCell>
        <mxCell id="8yrz2jLXbcKB5axZWUdh-17" value="ack" style="text;html=1;align=center;verticalAlign=middle;resizable=0;points=[];autosize=1;strokeColor=none;fillColor=none;" vertex="1" parent="1">
          <mxGeometry x="120" y="438" width="40" height="30" as="geometry" />
        </mxCell>
        <mxCell id="8yrz2jLXbcKB5axZWUdh-19" value="ack status" style="text;html=1;align=center;verticalAlign=middle;resizable=0;points=[];autosize=1;strokeColor=none;fillColor=none;" vertex="1" parent="1">
          <mxGeometry x="290" y="290" width="80" height="30" as="geometry" />
        </mxCell>
        <mxCell id="8yrz2jLXbcKB5axZWUdh-21" value="ack" style="text;html=1;align=center;verticalAlign=middle;resizable=0;points=[];autosize=1;strokeColor=none;fillColor=none;" vertex="1" parent="1">
          <mxGeometry x="20" y="248" width="40" height="30" as="geometry" />
        </mxCell>
        <mxCell id="8yrz2jLXbcKB5axZWUdh-22" value="获取 当前可以执行的任务" style="whiteSpace=wrap;html=1;" vertex="1" parent="1">
          <mxGeometry x="460" y="200" width="140" height="30" as="geometry" />
        </mxCell>
        <mxCell id="8yrz2jLXbcKB5axZWUdh-23" value="" style="image;sketch=0;aspect=fixed;html=1;points=[];align=center;fontSize=12;image=img/lib/mscae/Cache_Redis_Product.svg;" vertex="1" parent="1">
          <mxGeometry x="720" y="170" width="47.62" height="40" as="geometry" />
        </mxCell>
        <mxCell id="8yrz2jLXbcKB5axZWUdh-24" style="edgeStyle=orthogonalEdgeStyle;rounded=0;orthogonalLoop=1;jettySize=auto;html=1;entryX=0.084;entryY=0.35;entryDx=0;entryDy=0;entryPerimeter=0;" edge="1" parent="1" source="8yrz2jLXbcKB5axZWUdh-22" target="8yrz2jLXbcKB5axZWUdh-23">
          <mxGeometry relative="1" as="geometry" />
        </mxCell>
        <mxCell id="8yrz2jLXbcKB5axZWUdh-25" value="查询" style="text;html=1;align=center;verticalAlign=middle;resizable=0;points=[];autosize=1;strokeColor=none;fillColor=none;" vertex="1" parent="1">
          <mxGeometry x="610" y="180" width="50" height="30" as="geometry" />
        </mxCell>
      </root>
    </mxGraphModel>
  </diagram>
  <diagram id="hI9hvKbsbwFZHtIh2OyZ" name="adapter">
    <mxGraphModel dx="1434" dy="1915" grid="1" gridSize="10" guides="1" tooltips="1" connect="1" arrows="1" fold="1" page="1" pageScale="1" pageWidth="827" pageHeight="1169" math="0" shadow="0">
      <root>
        <mxCell id="0" />
        <mxCell id="1" parent="0" />
        <mxCell id="VN5O63Cu44CVRqFBaBLL-65" style="edgeStyle=orthogonalEdgeStyle;rounded=0;orthogonalLoop=1;jettySize=auto;html=1;" edge="1" parent="1" source="VN5O63Cu44CVRqFBaBLL-1" target="VN5O63Cu44CVRqFBaBLL-22">
          <mxGeometry relative="1" as="geometry" />
        </mxCell>
        <mxCell id="VN5O63Cu44CVRqFBaBLL-1" value="gateway" style="rounded=0;whiteSpace=wrap;html=1;" vertex="1" parent="1">
          <mxGeometry x="840" y="180" width="120" height="30" as="geometry" />
        </mxCell>
        <mxCell id="VN5O63Cu44CVRqFBaBLL-5" style="edgeStyle=orthogonalEdgeStyle;rounded=0;orthogonalLoop=1;jettySize=auto;html=1;entryX=1;entryY=0.25;entryDx=0;entryDy=0;" edge="1" parent="1" source="VN5O63Cu44CVRqFBaBLL-2" target="VN5O63Cu44CVRqFBaBLL-4">
          <mxGeometry relative="1" as="geometry" />
        </mxCell>
        <mxCell id="VN5O63Cu44CVRqFBaBLL-9" style="edgeStyle=orthogonalEdgeStyle;rounded=0;orthogonalLoop=1;jettySize=auto;html=1;entryX=0.5;entryY=0;entryDx=0;entryDy=0;" edge="1" parent="1" source="VN5O63Cu44CVRqFBaBLL-2" target="VN5O63Cu44CVRqFBaBLL-6">
          <mxGeometry relative="1" as="geometry" />
        </mxCell>
        <mxCell id="VN5O63Cu44CVRqFBaBLL-2" value="bridge" style="rounded=0;whiteSpace=wrap;html=1;" vertex="1" parent="1">
          <mxGeometry x="354" y="180" width="120" height="30" as="geometry" />
        </mxCell>
        <mxCell id="VN5O63Cu44CVRqFBaBLL-3" style="edgeStyle=orthogonalEdgeStyle;rounded=0;orthogonalLoop=1;jettySize=auto;html=1;entryX=0.442;entryY=0.067;entryDx=0;entryDy=0;entryPerimeter=0;" edge="1" parent="1" source="VN5O63Cu44CVRqFBaBLL-1" target="VN5O63Cu44CVRqFBaBLL-2">
          <mxGeometry relative="1" as="geometry" />
        </mxCell>
        <mxCell id="VN5O63Cu44CVRqFBaBLL-4" value="integration 接口配置" style="rounded=0;whiteSpace=wrap;html=1;fillColor=#e1d5e7;strokeColor=#9673a6;" vertex="1" parent="1">
          <mxGeometry x="20" y="190" width="120" height="30" as="geometry" />
        </mxCell>
        <mxCell id="VN5O63Cu44CVRqFBaBLL-10" style="edgeStyle=orthogonalEdgeStyle;rounded=0;orthogonalLoop=1;jettySize=auto;html=1;" edge="1" parent="1" source="VN5O63Cu44CVRqFBaBLL-6">
          <mxGeometry relative="1" as="geometry">
            <mxPoint x="354" y="340" as="targetPoint" />
          </mxGeometry>
        </mxCell>
        <mxCell id="VN5O63Cu44CVRqFBaBLL-6" value="抖音" style="rounded=0;whiteSpace=wrap;html=1;" vertex="1" parent="1">
          <mxGeometry x="294" y="250" width="120" height="30" as="geometry" />
        </mxCell>
        <mxCell id="VN5O63Cu44CVRqFBaBLL-7" value="美团" style="rounded=0;whiteSpace=wrap;html=1;" vertex="1" parent="1">
          <mxGeometry x="430" y="250" width="120" height="30" as="geometry" />
        </mxCell>
        <mxCell id="VN5O63Cu44CVRqFBaBLL-8" value="bridge" style="rounded=0;whiteSpace=wrap;html=1;" vertex="1" parent="1">
          <mxGeometry x="610" y="250" width="120" height="30" as="geometry" />
        </mxCell>
        <mxCell id="VN5O63Cu44CVRqFBaBLL-13" style="edgeStyle=orthogonalEdgeStyle;rounded=0;orthogonalLoop=1;jettySize=auto;html=1;" edge="1" parent="1" source="VN5O63Cu44CVRqFBaBLL-11" target="VN5O63Cu44CVRqFBaBLL-12">
          <mxGeometry relative="1" as="geometry" />
        </mxCell>
        <mxCell id="VN5O63Cu44CVRqFBaBLL-11" value="解析协议" style="rounded=0;whiteSpace=wrap;html=1;" vertex="1" parent="1">
          <mxGeometry x="294" y="350" width="120" height="30" as="geometry" />
        </mxCell>
        <mxCell id="VN5O63Cu44CVRqFBaBLL-12" value="文旅订单 保存" style="rounded=0;whiteSpace=wrap;html=1;" vertex="1" parent="1">
          <mxGeometry x="294" y="470" width="120" height="30" as="geometry" />
        </mxCell>
        <mxCell id="VN5O63Cu44CVRqFBaBLL-16" style="edgeStyle=orthogonalEdgeStyle;rounded=0;orthogonalLoop=1;jettySize=auto;html=1;entryX=0;entryY=0.5;entryDx=0;entryDy=0;" edge="1" parent="1" source="VN5O63Cu44CVRqFBaBLL-14" target="VN5O63Cu44CVRqFBaBLL-15">
          <mxGeometry relative="1" as="geometry" />
        </mxCell>
        <mxCell id="VN5O63Cu44CVRqFBaBLL-14" value="message" style="text;html=1;align=center;verticalAlign=middle;resizable=0;points=[];autosize=1;strokeColor=none;fillColor=none;" vertex="1" parent="1">
          <mxGeometry x="140" y="290" width="70" height="30" as="geometry" />
        </mxCell>
        <mxCell id="VN5O63Cu44CVRqFBaBLL-15" value="queue" style="rounded=0;whiteSpace=wrap;html=1;fillColor=#e1d5e7;strokeColor=#9673a6;" vertex="1" parent="1">
          <mxGeometry x="174" y="580" width="120" height="30" as="geometry" />
        </mxCell>
        <mxCell id="VN5O63Cu44CVRqFBaBLL-17" value="票1" style="text;html=1;align=center;verticalAlign=middle;resizable=0;points=[];autosize=1;strokeColor=none;fillColor=none;" vertex="1" parent="1">
          <mxGeometry x="450" y="458" width="40" height="30" as="geometry" />
        </mxCell>
        <mxCell id="VN5O63Cu44CVRqFBaBLL-18" value="房1" style="text;html=1;align=center;verticalAlign=middle;resizable=0;points=[];autosize=1;strokeColor=none;fillColor=none;" vertex="1" parent="1">
          <mxGeometry x="450" y="488" width="40" height="30" as="geometry" />
        </mxCell>
        <mxCell id="VN5O63Cu44CVRqFBaBLL-19" value="餐1" style="text;html=1;align=center;verticalAlign=middle;resizable=0;points=[];autosize=1;strokeColor=none;fillColor=none;" vertex="1" parent="1">
          <mxGeometry x="450" y="518" width="40" height="30" as="geometry" />
        </mxCell>
        <mxCell id="VN5O63Cu44CVRqFBaBLL-24" style="edgeStyle=orthogonalEdgeStyle;rounded=0;orthogonalLoop=1;jettySize=auto;html=1;entryX=1;entryY=0.5;entryDx=0;entryDy=0;" edge="1" parent="1" source="VN5O63Cu44CVRqFBaBLL-20" target="VN5O63Cu44CVRqFBaBLL-15">
          <mxGeometry relative="1" as="geometry">
            <mxPoint x="420" y="625" as="targetPoint" />
          </mxGeometry>
        </mxCell>
        <mxCell id="VN5O63Cu44CVRqFBaBLL-20" value="room adapter" style="rounded=0;whiteSpace=wrap;html=1;" vertex="1" parent="1">
          <mxGeometry x="650" y="600" width="120" height="30" as="geometry" />
        </mxCell>
        <mxCell id="VN5O63Cu44CVRqFBaBLL-21" value="message" style="text;html=1;align=center;verticalAlign=middle;resizable=0;points=[];autosize=1;strokeColor=none;fillColor=none;" vertex="1" parent="1">
          <mxGeometry x="360" y="558" width="70" height="30" as="geometry" />
        </mxCell>
        <mxCell id="VN5O63Cu44CVRqFBaBLL-63" style="edgeStyle=orthogonalEdgeStyle;rounded=0;orthogonalLoop=1;jettySize=auto;html=1;" edge="1" parent="1" source="VN5O63Cu44CVRqFBaBLL-22">
          <mxGeometry relative="1" as="geometry">
            <mxPoint x="980" y="810" as="targetPoint" />
            <Array as="points">
              <mxPoint x="915" y="815" />
              <mxPoint x="915" y="811" />
            </Array>
          </mxGeometry>
        </mxCell>
        <mxCell id="VN5O63Cu44CVRqFBaBLL-64" style="edgeStyle=orthogonalEdgeStyle;rounded=0;orthogonalLoop=1;jettySize=auto;html=1;entryX=0.75;entryY=1;entryDx=0;entryDy=0;" edge="1" parent="1" source="VN5O63Cu44CVRqFBaBLL-22" target="VN5O63Cu44CVRqFBaBLL-12">
          <mxGeometry relative="1" as="geometry" />
        </mxCell>
        <mxCell id="VN5O63Cu44CVRqFBaBLL-22" value="ticket adapter" style="rounded=0;whiteSpace=wrap;html=1;" vertex="1" parent="1">
          <mxGeometry x="730" y="800" width="120" height="30" as="geometry" />
        </mxCell>
        <mxCell id="VN5O63Cu44CVRqFBaBLL-23" value="餐饮 adapter" style="rounded=0;whiteSpace=wrap;html=1;" vertex="1" parent="1">
          <mxGeometry x="650" y="690" width="120" height="30" as="geometry" />
        </mxCell>
        <mxCell id="VN5O63Cu44CVRqFBaBLL-25" style="edgeStyle=orthogonalEdgeStyle;rounded=0;orthogonalLoop=1;jettySize=auto;html=1;entryX=0.575;entryY=0.867;entryDx=0;entryDy=0;entryPerimeter=0;" edge="1" parent="1" source="VN5O63Cu44CVRqFBaBLL-20" target="VN5O63Cu44CVRqFBaBLL-4">
          <mxGeometry relative="1" as="geometry">
            <Array as="points">
              <mxPoint x="710" y="660" />
              <mxPoint x="99" y="660" />
            </Array>
          </mxGeometry>
        </mxCell>
        <mxCell id="VN5O63Cu44CVRqFBaBLL-26" value="unitId" style="text;html=1;align=center;verticalAlign=middle;resizable=0;points=[];autosize=1;strokeColor=none;fillColor=none;" vertex="1" parent="1">
          <mxGeometry x="544" y="558" width="50" height="30" as="geometry" />
        </mxCell>
        <mxCell id="VN5O63Cu44CVRqFBaBLL-27" value="接口大类 房接口" style="text;html=1;align=center;verticalAlign=middle;resizable=0;points=[];autosize=1;strokeColor=none;fillColor=none;" vertex="1" parent="1">
          <mxGeometry x="650" y="558" width="110" height="30" as="geometry" />
        </mxCell>
        <mxCell id="VN5O63Cu44CVRqFBaBLL-32" style="edgeStyle=orthogonalEdgeStyle;rounded=0;orthogonalLoop=1;jettySize=auto;html=1;" edge="1" parent="1" source="VN5O63Cu44CVRqFBaBLL-28">
          <mxGeometry relative="1" as="geometry">
            <mxPoint x="1010" y="585" as="targetPoint" />
          </mxGeometry>
        </mxCell>
        <mxCell id="VN5O63Cu44CVRqFBaBLL-28" value="room-xms" style="text;html=1;align=center;verticalAlign=middle;resizable=0;points=[];autosize=1;strokeColor=#82b366;fillColor=#d5e8d4;" vertex="1" parent="1">
          <mxGeometry x="830" y="570" width="80" height="30" as="geometry" />
        </mxCell>
        <mxCell id="VN5O63Cu44CVRqFBaBLL-29" value="room-绿云" style="text;html=1;align=center;verticalAlign=middle;resizable=0;points=[];autosize=1;strokeColor=#82b366;fillColor=#d5e8d4;" vertex="1" parent="1">
          <mxGeometry x="827" y="630" width="80" height="30" as="geometry" />
        </mxCell>
        <mxCell id="VN5O63Cu44CVRqFBaBLL-37" style="edgeStyle=orthogonalEdgeStyle;rounded=0;orthogonalLoop=1;jettySize=auto;html=1;" edge="1" parent="1" source="VN5O63Cu44CVRqFBaBLL-30">
          <mxGeometry relative="1" as="geometry">
            <mxPoint x="1050" y="515" as="targetPoint" />
          </mxGeometry>
        </mxCell>
        <mxCell id="VN5O63Cu44CVRqFBaBLL-30" value="room-sep" style="text;html=1;align=center;verticalAlign=middle;resizable=0;points=[];autosize=1;strokeColor=#82b366;fillColor=#d5e8d4;" vertex="1" parent="1">
          <mxGeometry x="827" y="500" width="70" height="30" as="geometry" />
        </mxCell>
        <mxCell id="VN5O63Cu44CVRqFBaBLL-31" style="edgeStyle=orthogonalEdgeStyle;rounded=0;orthogonalLoop=1;jettySize=auto;html=1;entryX=0;entryY=0.533;entryDx=0;entryDy=0;entryPerimeter=0;" edge="1" parent="1" source="VN5O63Cu44CVRqFBaBLL-20" target="VN5O63Cu44CVRqFBaBLL-28">
          <mxGeometry relative="1" as="geometry" />
        </mxCell>
        <mxCell id="VN5O63Cu44CVRqFBaBLL-33" value="xms下行" style="text;html=1;align=center;verticalAlign=middle;resizable=0;points=[];autosize=1;strokeColor=#b85450;fillColor=#f8cecc;" vertex="1" parent="1">
          <mxGeometry x="1015" y="570" width="70" height="30" as="geometry" />
        </mxCell>
        <mxCell id="VN5O63Cu44CVRqFBaBLL-36" style="edgeStyle=orthogonalEdgeStyle;rounded=0;orthogonalLoop=1;jettySize=auto;html=1;exitX=0.5;exitY=0;exitDx=0;exitDy=0;" edge="1" parent="1" source="VN5O63Cu44CVRqFBaBLL-34">
          <mxGeometry relative="1" as="geometry">
            <mxPoint x="569" y="460" as="targetPoint" />
          </mxGeometry>
        </mxCell>
        <mxCell id="VN5O63Cu44CVRqFBaBLL-34" value="产品" style="rounded=0;whiteSpace=wrap;html=1;" vertex="1" parent="1">
          <mxGeometry x="509" y="460" width="120" height="30" as="geometry" />
        </mxCell>
        <mxCell id="VN5O63Cu44CVRqFBaBLL-35" style="edgeStyle=orthogonalEdgeStyle;rounded=0;orthogonalLoop=1;jettySize=auto;html=1;entryX=0.408;entryY=-0.067;entryDx=0;entryDy=0;entryPerimeter=0;" edge="1" parent="1" source="VN5O63Cu44CVRqFBaBLL-34" target="VN5O63Cu44CVRqFBaBLL-20">
          <mxGeometry relative="1" as="geometry" />
        </mxCell>
        <mxCell id="VN5O63Cu44CVRqFBaBLL-38" value="sep" style="text;html=1;align=center;verticalAlign=middle;resizable=0;points=[];autosize=1;strokeColor=none;fillColor=none;" vertex="1" parent="1">
          <mxGeometry x="1060" y="498" width="40" height="30" as="geometry" />
        </mxCell>
        <mxCell id="VN5O63Cu44CVRqFBaBLL-39" style="edgeStyle=orthogonalEdgeStyle;rounded=0;orthogonalLoop=1;jettySize=auto;html=1;entryX=0.858;entryY=0.133;entryDx=0;entryDy=0;entryPerimeter=0;" edge="1" parent="1" source="VN5O63Cu44CVRqFBaBLL-30" target="VN5O63Cu44CVRqFBaBLL-20">
          <mxGeometry relative="1" as="geometry" />
        </mxCell>
        <mxCell id="VN5O63Cu44CVRqFBaBLL-40" value="feign" style="text;html=1;align=center;verticalAlign=middle;resizable=0;points=[];autosize=1;strokeColor=none;fillColor=none;" vertex="1" parent="1">
          <mxGeometry x="660" y="490" width="50" height="30" as="geometry" />
        </mxCell>
        <mxCell id="VN5O63Cu44CVRqFBaBLL-41" style="edgeStyle=orthogonalEdgeStyle;rounded=0;orthogonalLoop=1;jettySize=auto;html=1;entryX=0.814;entryY=0.9;entryDx=0;entryDy=0;entryPerimeter=0;" edge="1" parent="1" source="VN5O63Cu44CVRqFBaBLL-12" target="VN5O63Cu44CVRqFBaBLL-14">
          <mxGeometry relative="1" as="geometry" />
        </mxCell>
        <mxCell id="VN5O63Cu44CVRqFBaBLL-42" value="ticket&amp;nbsp;" style="rounded=0;whiteSpace=wrap;html=1;fillColor=#d80073;strokeColor=#A50040;fontColor=#ffffff;" vertex="1" parent="1">
          <mxGeometry x="1380" y="810" width="120" height="30" as="geometry" />
        </mxCell>
        <mxCell id="VN5O63Cu44CVRqFBaBLL-43" value="xms" style="rounded=0;whiteSpace=wrap;html=1;fillColor=#d80073;strokeColor=#A50040;fontColor=#ffffff;" vertex="1" parent="1">
          <mxGeometry x="1380" y="730" width="120" height="30" as="geometry" />
        </mxCell>
        <mxCell id="VN5O63Cu44CVRqFBaBLL-60" style="edgeStyle=orthogonalEdgeStyle;rounded=0;orthogonalLoop=1;jettySize=auto;html=1;" edge="1" parent="1" source="VN5O63Cu44CVRqFBaBLL-45" target="VN5O63Cu44CVRqFBaBLL-59">
          <mxGeometry relative="1" as="geometry" />
        </mxCell>
        <mxCell id="VN5O63Cu44CVRqFBaBLL-45" value="mob" style="rounded=0;whiteSpace=wrap;html=1;" vertex="1" parent="1">
          <mxGeometry x="1330" y="280" width="120" height="60" as="geometry" />
        </mxCell>
        <mxCell id="VN5O63Cu44CVRqFBaBLL-46" value="ticket" style="rounded=0;whiteSpace=wrap;html=1;" vertex="1" parent="1">
          <mxGeometry x="1400" y="572" width="120" height="25" as="geometry" />
        </mxCell>
        <mxCell id="VN5O63Cu44CVRqFBaBLL-69" style="edgeStyle=orthogonalEdgeStyle;rounded=0;orthogonalLoop=1;jettySize=auto;html=1;entryX=0;entryY=0.5;entryDx=0;entryDy=0;fillColor=#008a00;strokeColor=#005700;" edge="1" parent="1" source="VN5O63Cu44CVRqFBaBLL-47" target="VN5O63Cu44CVRqFBaBLL-46">
          <mxGeometry relative="1" as="geometry">
            <Array as="points">
              <mxPoint x="1350" y="640" />
              <mxPoint x="1350" y="590" />
              <mxPoint x="1400" y="590" />
            </Array>
          </mxGeometry>
        </mxCell>
        <mxCell id="VN5O63Cu44CVRqFBaBLL-47" value="文旅" style="rounded=0;whiteSpace=wrap;html=1;" vertex="1" parent="1">
          <mxGeometry x="1121" y="625" width="120" height="35" as="geometry" />
        </mxCell>
        <mxCell id="VN5O63Cu44CVRqFBaBLL-48" value="公共协议" style="rounded=0;whiteSpace=wrap;html=1;" vertex="1" parent="1">
          <mxGeometry x="1230" y="440" width="220" height="40" as="geometry" />
        </mxCell>
        <mxCell id="VN5O63Cu44CVRqFBaBLL-49" style="edgeStyle=orthogonalEdgeStyle;rounded=0;orthogonalLoop=1;jettySize=auto;html=1;entryX=0.464;entryY=0.083;entryDx=0;entryDy=0;entryPerimeter=0;" edge="1" parent="1" source="VN5O63Cu44CVRqFBaBLL-45" target="VN5O63Cu44CVRqFBaBLL-48">
          <mxGeometry relative="1" as="geometry" />
        </mxCell>
        <mxCell id="VN5O63Cu44CVRqFBaBLL-51" style="edgeStyle=orthogonalEdgeStyle;rounded=0;orthogonalLoop=1;jettySize=auto;html=1;" edge="1" parent="1" source="VN5O63Cu44CVRqFBaBLL-50">
          <mxGeometry relative="1" as="geometry">
            <mxPoint x="1230" y="473" as="targetPoint" />
          </mxGeometry>
        </mxCell>
        <mxCell id="VN5O63Cu44CVRqFBaBLL-50" value="开关" style="text;html=1;align=center;verticalAlign=middle;resizable=0;points=[];autosize=1;strokeColor=none;fillColor=none;" vertex="1" parent="1">
          <mxGeometry x="1140" y="440" width="50" height="30" as="geometry" />
        </mxCell>
        <mxCell id="VN5O63Cu44CVRqFBaBLL-53" style="edgeStyle=orthogonalEdgeStyle;rounded=0;orthogonalLoop=1;jettySize=auto;html=1;" edge="1" parent="1" source="VN5O63Cu44CVRqFBaBLL-48">
          <mxGeometry relative="1" as="geometry">
            <mxPoint x="1230" y="520" as="targetPoint" />
          </mxGeometry>
        </mxCell>
        <mxCell id="VN5O63Cu44CVRqFBaBLL-55" value="" style="edgeStyle=none;orthogonalLoop=1;jettySize=auto;html=1;rounded=0;" edge="1" parent="1">
          <mxGeometry width="100" relative="1" as="geometry">
            <mxPoint x="1320" y="670" as="sourcePoint" />
            <mxPoint x="1420" y="670" as="targetPoint" />
            <Array as="points" />
          </mxGeometry>
        </mxCell>
        <mxCell id="VN5O63Cu44CVRqFBaBLL-56" value="coupon" style="text;html=1;align=center;verticalAlign=middle;resizable=0;points=[];autosize=1;strokeColor=#005700;fillColor=#008a00;fontColor=#ffffff;" vertex="1" parent="1">
          <mxGeometry x="1770" y="630" width="60" height="30" as="geometry" />
        </mxCell>
        <mxCell id="VN5O63Cu44CVRqFBaBLL-57" value="coupon" style="text;html=1;align=center;verticalAlign=middle;resizable=0;points=[];autosize=1;strokeColor=#005700;fillColor=#008a00;fontColor=#ffffff;" vertex="1" parent="1">
          <mxGeometry x="1790" y="537.5" width="60" height="30" as="geometry" />
        </mxCell>
        <mxCell id="VN5O63Cu44CVRqFBaBLL-59" value="公共协议" style="rounded=0;whiteSpace=wrap;html=1;" vertex="1" parent="1">
          <mxGeometry x="1600" y="448" width="220" height="40" as="geometry" />
        </mxCell>
        <mxCell id="VN5O63Cu44CVRqFBaBLL-61" value="web" style="text;html=1;align=center;verticalAlign=middle;resizable=0;points=[];autosize=1;strokeColor=none;fillColor=none;" vertex="1" parent="1">
          <mxGeometry x="364" y="-2" width="50" height="30" as="geometry" />
        </mxCell>
        <mxCell id="VN5O63Cu44CVRqFBaBLL-62" value="url" style="text;html=1;align=center;verticalAlign=middle;resizable=0;points=[];autosize=1;strokeColor=none;fillColor=none;" vertex="1" parent="1">
          <mxGeometry x="555" y="-2" width="40" height="30" as="geometry" />
        </mxCell>
        <mxCell id="VN5O63Cu44CVRqFBaBLL-66" value="&amp;nbsp;coupon adapter" style="rounded=0;whiteSpace=wrap;html=1;" vertex="1" parent="1">
          <mxGeometry x="645" y="900" width="120" height="30" as="geometry" />
        </mxCell>
        <mxCell id="VN5O63Cu44CVRqFBaBLL-68" style="edgeStyle=orthogonalEdgeStyle;rounded=0;orthogonalLoop=1;jettySize=auto;html=1;entryX=1;entryY=0.5;entryDx=0;entryDy=0;" edge="1" parent="1" source="VN5O63Cu44CVRqFBaBLL-67" target="VN5O63Cu44CVRqFBaBLL-66">
          <mxGeometry relative="1" as="geometry" />
        </mxCell>
        <mxCell id="VN5O63Cu44CVRqFBaBLL-67" value="xtmp" style="rounded=0;whiteSpace=wrap;html=1;" vertex="1" parent="1">
          <mxGeometry x="840" y="900" width="120" height="30" as="geometry" />
        </mxCell>
        <mxCell id="VN5O63Cu44CVRqFBaBLL-72" style="edgeStyle=orthogonalEdgeStyle;rounded=0;orthogonalLoop=1;jettySize=auto;html=1;" edge="1" parent="1" source="VN5O63Cu44CVRqFBaBLL-70" target="VN5O63Cu44CVRqFBaBLL-57">
          <mxGeometry relative="1" as="geometry" />
        </mxCell>
        <mxCell id="VN5O63Cu44CVRqFBaBLL-70" value="文旅" style="rounded=0;whiteSpace=wrap;html=1;" vertex="1" parent="1">
          <mxGeometry x="1590" y="535" width="120" height="35" as="geometry" />
        </mxCell>
        <mxCell id="VN5O63Cu44CVRqFBaBLL-71" style="edgeStyle=orthogonalEdgeStyle;rounded=0;orthogonalLoop=1;jettySize=auto;html=1;entryX=0.583;entryY=0.143;entryDx=0;entryDy=0;entryPerimeter=0;" edge="1" parent="1" source="VN5O63Cu44CVRqFBaBLL-59" target="VN5O63Cu44CVRqFBaBLL-70">
          <mxGeometry relative="1" as="geometry" />
        </mxCell>
        <mxCell id="VN5O63Cu44CVRqFBaBLL-74" style="edgeStyle=orthogonalEdgeStyle;rounded=0;orthogonalLoop=1;jettySize=auto;html=1;entryX=0.25;entryY=0;entryDx=0;entryDy=0;" edge="1" parent="1" source="VN5O63Cu44CVRqFBaBLL-73" target="VN5O63Cu44CVRqFBaBLL-47">
          <mxGeometry relative="1" as="geometry" />
        </mxCell>
        <mxCell id="VN5O63Cu44CVRqFBaBLL-75" style="edgeStyle=orthogonalEdgeStyle;rounded=0;orthogonalLoop=1;jettySize=auto;html=1;" edge="1" parent="1" source="VN5O63Cu44CVRqFBaBLL-73" target="VN5O63Cu44CVRqFBaBLL-46">
          <mxGeometry relative="1" as="geometry" />
        </mxCell>
        <mxCell id="VN5O63Cu44CVRqFBaBLL-73" value="Dispatch" style="text;html=1;align=center;verticalAlign=middle;resizable=0;points=[];autosize=1;strokeColor=#005700;fillColor=#008a00;fontColor=#ffffff;" vertex="1" parent="1">
          <mxGeometry x="1190" y="518" width="70" height="30" as="geometry" />
        </mxCell>
      </root>
    </mxGraphModel>
  </diagram>
</mxfile>
